<?xml version="1.0" encoding="UTF-8"?>
<svg width="54px" height="54px" viewBox="0 0 54 54" version="1.1" xmlns="http://www.w3.org/2000/svg" xmlns:xlink="http://www.w3.org/1999/xlink">
    <title>Group</title>
    <g id="Page-1" stroke="none" stroke-width="1" fill="none" fill-rule="evenodd">
        <g id="Artboard-Copy-6" transform="translate(-181.000000, -474.000000)">
            <g id="Group" transform="translate(181.000000, 474.000000)">
                <circle id="Oval" fill="#FFEFEF" cx="27" cy="27" r="27"></circle>
                <g id="noun-quality-3964332" transform="translate(6.000000, 5.000000)" fill-rule="nonzero">
                    <path d="M21.1200297,0 C20.1919494,0 19.2560906,0.286047271 18.4695166,0.862164671 L16.260651,2.49833683 C15.4893669,3.06306922 14.5434825,3.36388007 13.5876666,3.36081579 L10.8487612,3.33871756 C8.89862976,3.33227219 7.15993279,4.59743241 6.56357913,6.45611895 L5.7241269,9.08700584 C5.43163075,9.99764911 4.86471764,10.7827352 4.08945789,11.3422426 L1.85843522,12.9560219 C0.276880186,14.0980581 -0.384844516,16.1424876 0.223766211,17.997167 L1.08529689,20.6059753 C1.383623,21.5144185 1.383623,22.4831261 1.08529689,23.3918837 L0.223766211,26.0227705 C-0.384852373,27.8772142 0.2768629,29.8994866 1.85843522,31.0415228 L4.08945789,32.6556164 C4.86442693,33.2151316 5.43192147,34.022367 5.7241269,34.9329317 L6.56357913,37.54174 C7.15991708,39.4001122 8.89862976,40.6658985 10.8487612,40.6591414 L13.5876666,40.6591414 C14.5434039,40.6554583 15.4893198,40.9568565 16.260651,41.5216203 L18.4695166,43.1353996 C20.0433717,44.2882001 22.1967663,44.2882001 23.7706214,43.1353996 L25.979487,41.5216203 C26.7507711,40.9568879 27.6966555,40.6560771 28.6524714,40.6591414 L31.3913768,40.6591414 C33.3418225,40.6655867 35.0802052,39.4001908 35.6765589,37.54174 L36.5160111,34.9329317 C36.8082008,34.0222884 37.3756561,33.2151238 38.1506801,32.6556164 L40.3817028,31.0415228 C41.9632578,29.8994866 42.6249825,27.8772142 42.0160575,26.0227705 L41.1548411,23.3918837 C40.856515,22.4834404 40.856515,21.5144185 41.1548411,20.6059753 L42.0160575,17.997167 C42.6249825,16.1424876 41.9632673,14.0980581 40.3817028,12.9560219 L38.1506801,11.3422426 C37.3757111,10.7824209 36.8082165,9.99764911 36.5160111,9.08700584 L35.6765589,6.45611895 C35.0802209,4.59743241 33.3418225,3.33196042 31.3913768,3.33871756 L28.6524714,3.36081579 C27.6967341,3.36449874 26.7508182,3.06310065 25.979487,2.49833683 L23.7706214,0.862164671 C23.0300271,0.319840857 22.1577951,0.0347285869 21.2840073,0.00306428708 L21.1200297,0 Z" id="Shape" stroke="#212121" stroke-width="1.5"></path>
                    <path d="M27.5097285,11.6361672 C27.3161582,10.9006044 27.0081958,10.8751491 26.8041702,11.5601351 L25.4149819,16.8712089 C25.2252508,17.608861 24.4924873,18.3656738 23.7551701,18.6014775 L18.432612,19.9996924 C17.6932235,20.1929157 17.6677593,20.5050676 18.3562312,20.7087463 L23.658968,22.0954433 C24.3955709,22.2900595 25.15137,23.0238366 25.3874401,23.7601762 L26.7828783,29.0883929 C26.9792343,29.8263932 27.2871968,29.8518575 27.4884367,29.1647742 L28.877625,23.8561111 C29.0697935,23.1208965 29.8053874,22.364414 30.538151,22.124146 L30.633713,22.0955469 L35.8652895,20.730457 C36.6022406,20.534448 36.6277047,20.2222961 35.9416703,20.0207067 L30.6337549,18.6290989 C29.8995896,18.4397149 29.1441208,17.7058842 28.9059079,16.9675803 L27.5097285,11.6361672 Z" id="Path" fill="#D43F37"></path>
                    <path d="M12.8116002,20.121796 C12.6860474,19.6460726 12.4844503,19.625144 12.3567993,20.0597148 L11.4493046,23.5244484 C11.3303767,23.9970379 10.8623259,24.4815024 10.3904715,24.6419489 L6.90942045,25.5574851 C6.43509287,25.6806012 6.41451263,25.8814941 6.84768778,26.0136817 L10.3071318,26.9166285 C10.7783166,27.0428875 11.2658762,27.5057092 11.4249824,27.9779683 L12.3397985,31.4615413 C12.4629139,31.9400593 12.6620645,31.9609879 12.7942423,31.5239717 L13.6993263,28.061738 C13.8231381,27.5908985 14.286305,27.1106661 14.753963,26.9438803 L18.2419783,26.0311121 C18.7166541,25.9059067 18.7372343,25.7046655 18.3040592,25.5749154 L14.8418473,24.6667007 C14.3731,24.5456739 13.8879243,24.080763 13.7247109,23.607861 L12.8116002,20.121796 Z" id="Path" fill="#212121"></path>
                </g>
            </g>
        </g>
    </g>
</svg>