<?xml version="1.0" encoding="UTF-8"?>
<svg width="54px" height="54px" viewBox="0 0 54 54" version="1.1" xmlns="http://www.w3.org/2000/svg" xmlns:xlink="http://www.w3.org/1999/xlink">
    <title>Group 3</title>
    <g id="Page-1" stroke="none" stroke-width="1" fill="none" fill-rule="evenodd">
        <g id="Artboard-Copy-6" transform="translate(-954.000000, -473.000000)">
            <g id="Group-3" transform="translate(954.000000, 473.000000)">
                <circle id="Oval-Copy-2" fill="#FFEFEF" cx="27" cy="27" r="27"></circle>
                <g id="noun-agile-4033907" transform="translate(10.234585, 8.000000)" fill-rule="nonzero">
                    <path d="M4.02310588,28.9218932 C4.46144096,28.9169103 4.83031899,28.5957817 4.89196175,28.165294 C4.93046598,27.9333108 4.87159321,27.6960621 4.72957628,27.5080958 C2.69079355,24.7190395 1.66872362,21.3253275 1.83058052,17.8840623 C1.99268743,14.4427262 3.32914976,11.1581527 5.62071783,8.56972703 C7.91257162,5.98137227 11.0230671,4.24309322 14.4421335,3.64013831 C14.9066971,3.56373426 15.2317752,3.14322494 15.1854181,2.67844365 C15.1393803,2.2136411 14.7375973,1.86401513 14.2672052,1.879252 C14.2133545,1.8728849 14.1586696,1.8728849 14.1048197,1.879252 C10.2839681,2.55001454 6.80697324,4.49170228 4.2462627,7.38465274 C1.68598073,10.2772488 0.194625775,13.9489098 0.0177688907,17.7946254 C-0.15913085,21.6404118 0.989053183,25.4314873 3.27304984,28.5440613 C3.44324959,28.7871213 3.72505632,28.9291361 4.02304874,28.9224542 L4.02310588,28.9218932 Z" id="Path" fill="#212121"></path>
                    <path d="M24.7352184,33.7771402 C28.6372841,31.8570109 31.6526369,28.5303411 33.1644918,24.4776875 C34.6763467,20.4250339 34.5709897,15.9521261 32.8692922,11.9735308 C31.1675804,7.99543161 27.9985136,4.81220102 24.0100195,3.07590631 L26.9288009,1.69310703 C27.1444787,1.59372719 27.3110571,1.41295411 27.3911355,1.19065878 C27.473164,0.96781067 27.4594947,0.721426907 27.353747,0.508543002 C27.2053115,0.199872325 26.8919763,0.00249459484 26.547391,0 C26.412627,0.00055362997 26.2800914,0.0323893376 26.1598345,0.0930157879 L21.1411275,2.45579397 C20.9162421,2.56320329 20.746321,2.75864629 20.6723782,2.99534224 C20.5998355,3.23120193 20.6268983,3.48616795 20.7474353,3.70209923 L23.5100026,8.45834195 C23.6737881,8.73240721 23.970102,8.90182705 24.2912872,8.90487443 C24.4469798,8.90598176 24.6004368,8.86528762 24.7349223,8.78694104 C24.9475362,8.66900765 25.1029432,8.47024088 25.1654431,8.2365994 C25.2276637,8.00267444 25.1919495,7.75380317 25.0661146,7.54673053 L23.4475456,4.76872987 C26.6358981,6.19773585 29.2341085,8.66844778 30.8082491,11.768478 C32.3827468,14.8684373 32.838389,18.4102659 32.0992472,21.802844 C31.3598197,25.1957056 29.4706082,28.2347883 26.7460408,30.4127397 C24.0216876,32.5908328 20.6271926,33.7759779 17.1281977,33.7710171 L3.94679428,33.7710171 L4.92165,32.8658052 C5.27572091,32.5347111 5.2980423,31.9835615 4.97159421,31.6253178 C4.80167303,31.4448212 4.56423052,31.3418412 4.31534517,31.3401828 C4.08431694,31.3363071 3.86054584,31.4204634 3.69034608,31.5757661 L1.07177849,34.0005548 C0.877578775,34.1672108 0.765978938,34.4091581 0.765414653,34.6638478 C0.766530723,34.7881452 0.794153182,34.9107843 0.846607391,35.0237285 C0.8700445,35.071067 0.89710946,35.1167443 0.92780013,35.159932 L0.984161476,35.2219425 C0.999507167,35.2474107 1.01848071,35.2703879 1.04052282,35.2903199 L3.70287607,37.7582679 C3.96738282,38.0057573 4.35661082,38.0697025 4.68723177,37.9199347 C5.01785271,37.7701669 5.22433812,37.4365857 5.20899529,37.0761663 C5.20118244,36.8394775 5.09766688,36.6160695 4.92161,36.4560611 L3.94032572,35.5508491 L31.8717017,35.5508491 C32.3652867,35.5508491 32.7654147,35.153592 32.7654147,34.6638506 C32.7654147,34.1741304 32.365301,33.7771355 31.8717017,33.7771355 L24.7352184,33.7771402 Z" id="Path" fill="#212121"></path>
                    <path d="M7.39160095,18.9194183 C7.38999824,21.5714845 8.44995654,24.115546 10.3386681,25.992516 C12.2270939,27.8691317 14.7895187,28.9250115 17.4625148,28.9277808 C20.1355109,28.9305437 22.7002214,27.8799747 24.5925043,26.0069025 C26.485073,24.1341137 27.5503571,21.5919657 27.5540108,18.9398995 C27.5579062,16.2878334 26.5001444,13.7429214 24.6131472,11.8646049 C22.7261499,9.98628838 20.1645108,8.92821164 17.4915147,8.92324884 C14.8168758,8.92158977 12.2507367,9.97353193 10.3567395,11.847738 C8.46302795,13.7218733 7.39667237,16.2654387 7.39160095,18.9194183 L7.39160095,18.9194183 Z M17.4916576,10.6963975 C19.6897258,10.6963975 21.7977227,11.5629857 23.3518633,13.1048863 C24.9060039,14.6468577 25.7792883,16.7383487 25.7792883,18.9192057 C25.7792883,21.0998502 24.9059324,23.1912703 23.3518633,24.7335252 C21.7977227,26.2754966 19.6897258,27.1416596 17.4916576,27.1416596 C15.2938037,27.1416596 13.1858782,26.2754258 11.6317376,24.7335252 C10.0773113,23.1912703 9.20431258,21.0998502 9.20431258,18.9192057 C9.20598672,16.7388448 10.079597,14.6484877 11.6334519,13.1067997 C13.1873067,11.5651118 15.2944465,10.6980983 17.491729,10.6963975 L17.4916576,10.6963975 Z" id="Shape" fill="#D43F37"></path>
                    <path d="M11.8368212,18.9186564 C11.8359241,20.4031229 12.4292246,21.8271349 13.4864111,22.8777494 C14.5434377,23.9281655 15.9777281,24.5191833 17.4739097,24.5207334 C18.9700913,24.5222799 20.4056611,23.9342348 21.4648467,22.8858021 C22.5241922,21.837528 23.1204738,20.414587 23.1225189,18.9301205 C23.1246993,17.445654 22.5326282,16.021166 21.4764013,14.9697978 C20.4201744,13.9184296 18.9863237,13.3261822 17.4901421,13.3234043 C15.993041,13.3224756 14.5566715,13.9112893 13.4965264,14.9603568 C12.4365412,16.0093845 11.8396598,17.4331189 11.8368212,18.9186564 L11.8368212,18.9186564 Z M17.4795999,14.8825261 C18.5594524,14.8825261 19.5950552,15.308256 20.3585632,16.0657475 C21.1220712,16.8232739 21.5510926,17.8507634 21.5510926,18.9221559 C21.5510926,19.9934439 21.1220361,21.0208987 20.3585632,21.7785643 C19.5950552,22.5360906 18.5594524,22.9616116 17.4795999,22.9616116 C16.3998526,22.9616116 15.3642848,22.5360558 14.6007768,21.7785643 C13.8371285,21.0208987 13.4082474,19.9934439 13.4082474,18.9221559 C13.4090699,17.8510071 13.8382514,16.8240746 14.601619,16.0666876 C15.3649866,15.3093005 16.4001684,14.8833616 17.4796349,14.8825261 L17.4795999,14.8825261 Z" id="Shape-Copy" fill="#212121"></path>
                </g>
            </g>
        </g>
    </g>
</svg>