<?xml version="1.0" encoding="UTF-8"?>
<svg width="54px" height="54px" viewBox="0 0 54 54" version="1.1" xmlns="http://www.w3.org/2000/svg" xmlns:xlink="http://www.w3.org/1999/xlink">
    <title>Group 2</title>
    <g id="Page-1" stroke="none" stroke-width="1" fill="none" fill-rule="evenodd">
        <g id="Artboard-Copy-6" transform="translate(-568.000000, -473.000000)">
            <g id="Group-2" transform="translate(568.000000, 473.000000)">
                <circle id="Oval-Copy" fill="#FFEFEF" cx="27" cy="27" r="27"></circle>
                <g id="noun-scalability-4344319" transform="translate(10.000000, 10.000000)" fill-rule="nonzero">
                    <path d="M9.39995468,10.6668929 L9.39995468,23.3331071 C9.39995468,23.6692104 9.53327994,23.9912671 9.77105057,24.2287536 C10.0085498,24.4665182 10.3306055,24.5998507 10.666694,24.5998507 L23.3328654,24.5998507 C23.6689675,24.5998507 23.9910232,24.466525 24.2285088,24.2287536 C24.4662727,23.9912536 24.5996047,23.6691968 24.5996047,23.3331071 L24.5996047,10.6668929 C24.5996047,10.3307896 24.4662795,10.0087329 24.2285088,9.77124643 C23.9910096,9.53348179 23.6689539,9.40014929 23.3328654,9.40014929 L10.666694,9.40014929 C10.3305919,9.40014929 10.0085362,9.533475 9.77105057,9.77124643 C9.53328673,10.0087464 9.39995468,10.3308032 9.39995468,10.6668929 L9.39995468,10.6668929 Z M10.6667075,10.6668929 L23.332879,10.6668929 L23.332879,23.3337857 L10.6667075,23.3335206 L10.6667075,10.6668929 Z" id="Shape" fill="#D43F37"></path>
                    <path d="M1.08119813,12.9812086 C1.19994773,12.8624572 1.26674608,12.7012979 1.26674608,12.5332429 L1.26674608,1.26675714 L12.5332275,1.26675714 C12.8831113,1.26675714 13.1667329,0.983134643 13.1667329,0.633249643 C13.1667329,0.283629286 12.8831113,6.78571428e-06 12.5332275,6.78571428e-06 L1.26674608,6.78571428e-06 C0.930643997,6.78571428e-06 0.6085883,0.1333325 0.371102674,0.371103929 C0.133338835,0.608603929 6.78569268e-06,0.930660714 6.78569268e-06,1.26675036 L6.78569268e-06,12.5332361 C6.78569268e-06,12.7012911 0.0668037742,12.8624518 0.18555473,12.9812018 C0.304305686,13.0999518 0.465464498,13.1667571 0.633254288,13.1667571 C0.801288363,13.1667571 0.962448532,13.0999599 1.08119813,12.9812086 Z" id="Path" fill="#212121"></path>
                    <path d="M12.8832339,15.4167571 C13.0512884,15.4167571 13.2124485,15.3499599 13.3311981,15.2312086 C13.4499477,15.1124572 13.5167461,14.9512979 13.5167461,14.7832429 L13.5167461,13.5167571 L14.7832275,13.5167571 C15.1331113,13.5167571 15.4167329,13.2331346 15.4167329,12.8832496 C15.4167329,12.5336293 15.1331113,12.2500068 14.7832275,12.2500068 L13.5167461,12.2500068 C13.180644,12.2500068 12.8585883,12.3833325 12.6211027,12.6211039 C12.3833388,12.8586039 12.2500068,13.1806607 12.2500068,13.5167504 L12.2500068,14.7832361 C12.2500068,14.9512911 12.3168038,15.1124518 12.4355547,15.2312018 C12.5543057,15.3499518 12.7154645,15.4167571 12.8832543,15.4167571 L12.8832339,15.4167571 Z" id="Path-Copy" fill="#212121"></path>
                    <path d="M19.6689482,22.2024714 C19.8370026,22.2024714 19.9981628,22.1356742 20.1169124,22.0169229 C20.235662,21.8981715 20.3024604,21.7370121 20.3024604,21.5689571 L20.3024604,20.3024714 L21.5689418,20.3024714 C21.9188256,20.3024714 22.2024472,20.0188489 22.2024472,19.6689639 C22.2024472,19.3193436 21.9188256,19.0357211 21.5689418,19.0357211 L20.3024604,19.0357211 C19.9663583,19.0357211 19.6443026,19.1690468 19.406817,19.4068182 C19.1690531,19.6443182 19.0357211,19.966375 19.0357211,20.3024646 L19.0357211,21.5689504 C19.0357211,21.7370054 19.1025181,21.8981661 19.221269,22.0169161 C19.34002,22.1356661 19.5011788,22.2024714 19.6689686,22.2024714 L19.6689482,22.2024714 Z" id="Path-Copy-2" fill="#212121" transform="translate(20.619084, 20.619096) scale(-1, -1) translate(-20.619084, -20.619096) "></path>
                    <path d="M21.4664948,0 C21.1166109,0 20.8329894,0.2836225 20.8329894,0.633242857 C20.8329894,0.983127857 21.1166109,1.26675036 21.4664948,1.26675036 L32.7332476,1.26675036 L32.7329825,12.5332361 C32.7329825,12.8831211 33.016604,13.1667436 33.3664879,13.1667436 C33.716107,13.1667436 33.9997286,12.8831211 33.9997286,12.5332361 L33.9997286,1.26675036 C33.9997286,0.930647143 33.8664033,0.608590357 33.6286327,0.371103929 C33.3911335,0.133339286 33.0690778,0 32.7329893,0 L21.4664948,0 Z" id="Path" fill="#212121"></path>
                    <path d="M12.5332275,34 C12.8831113,34 13.1667329,33.7163775 13.1667329,33.3667571 C13.1667329,33.0168721 12.8831113,32.7332496 12.5332275,32.7332496 L1.26674608,32.7332496 L1.26674608,21.4667639 C1.26674608,21.1168789 0.983124534,20.8332564 0.633240717,20.8332564 C0.283621541,20.8332564 0,21.1168789 0,21.4667639 L0,32.7335211 C0,33.0693592 0.133325264,33.391416 0.371095888,33.6289024 C0.608595086,33.866667 0.930650783,34 1.26673929,34 L12.5332275,34 Z" id="Path" fill="#212121"></path>
                    <path d="M32.7332544,21.4666146 L32.7332544,32.7333718 L21.466773,32.7331067 C21.1168891,32.7331067 20.8332676,33.0167292 20.8332676,33.3666142 C20.8332676,33.7162345 21.1168891,33.999857 21.466773,33.999857 L32.7335258,33.999857 C33.0693628,33.999857 33.3914185,33.8665313 33.6289041,33.6287599 C33.866668,33.3912599 34,33.0692031 34,32.7331135 L34,21.4666277 C34,21.2985727 33.933203,21.137412 33.8144521,21.018662 C33.6957011,20.899912 33.5345423,20.8331071 33.3667525,20.8331071 C33.0168759,20.8331071 32.7332544,21.1167296 32.7332544,21.4666146 Z" id="Path" fill="#212121"></path>
                    <path d="M2.79998037,6.6 C2.79998037,6.949885 3.08360191,7.23324286 3.43322109,7.23324286 C3.7831049,7.23324286 4.06672644,6.949885 4.06672644,6.6 L4.06672644,4.96213214 L7.21206266,8.03255487 C7.46069718,8.27270849 7.85564477,8.26926135 8.09976681,8.02486774 C8.34416027,7.7807381 8.34760061,7.38578917 8.10771896,7.1371606 L4.96211131,4.06673787 L6.59997363,4.06673787 C6.94985745,4.06673787 7.23321435,3.78311537 7.23321435,3.43323037 C7.23321435,3.08361001 6.94985745,2.79998751 6.59997363,2.79998751 L3.43322719,2.79998751 C3.08360802,2.79998751 2.79998037,3.08361001 2.79998037,3.43323037 L2.79998037,6.6 Z" id="Path" fill="#212121"></path>
                    <path d="M2.79997467,30.5668929 C2.79997467,30.7346832 2.86677736,30.8958439 2.98552831,31.0145939 C3.10427927,31.1333439 3.26543808,31.2001425 3.43322787,31.2001425 L6.59997431,31.2001425 C6.94985813,31.2001425 7.23321503,30.91652 7.23321503,30.5668996 C7.23321503,30.2170146 6.94985813,29.9333921 6.59997431,29.9333921 L4.96211199,29.9333921 L8.1316275,26.5787013 C8.37178031,26.3300659 8.36833318,25.935117 8.12394039,25.6909941 C7.87981158,25.4465998 7.48486398,25.4431595 7.23623625,25.6830419 L4.06672074,29.0380042 L4.06672074,27.4001364 C4.06672074,27.0502514 3.7830992,26.7668935 3.43321539,26.7668935 C3.08359621,26.7668935 2.79997467,27.0502514 2.79997467,27.4001364 L2.79997467,30.5668929 Z" id="Path" fill="#212121"></path>
                    <path d="M31.1998783,27.4001357 C31.1998783,27.0502507 30.9162561,26.7668929 30.5666369,26.7668929 C30.2167531,26.7668929 29.9331315,27.0502507 29.9331315,27.4001357 L29.9331315,29.0380036 L26.9133473,25.9534767 C26.6647128,25.713323 26.2697652,25.7167702 26.0256431,25.9611638 C25.7812497,26.2052934 25.7778093,26.6002424 26.017691,26.8488709 L29.0377467,29.9333978 L27.3998843,29.9333978 C27.0500005,29.9333978 26.7666436,30.2170203 26.7666436,30.5669053 C26.7666436,30.9165257 27.0500005,31.2001482 27.3998843,31.2001482 L30.5666308,31.2001482 C30.7344206,31.2001482 30.8955807,31.133351 31.0143303,31.0145996 C31.1330799,30.8958483 31.1998783,30.7346889 31.1998783,30.5668986 L31.1998783,27.4001357 Z" id="Path" fill="#212121"></path>
                    <path d="M31.199884,3.43324286 C31.199884,3.2654525 31.1330806,3.10429179 31.0143297,2.98554179 C30.8955787,2.86679179 30.7344199,2.79999321 30.5666301,2.79999321 L27.3998837,2.79999321 C27.0499998,2.79999321 26.7666429,3.08361571 26.7666429,3.43323607 C26.7666429,3.78312107 27.0499998,4.06674357 27.3998837,4.06674357 L29.037746,4.06674357 L26.106203,6.95190599 C25.9837412,7.06986206 25.9142964,7.23208135 25.9126741,7.40198885 C25.9111114,7.57189635 25.9781729,7.73518099 26.0982497,7.8552542 C26.2183266,7.97532742 26.3816066,8.04239063 26.5515136,8.04083034 C26.7214205,8.03921234 26.8836392,7.96976313 27.0015949,7.84756599 L29.9331379,4.96213214 L29.9331379,6.6 C29.9331379,6.949885 30.2167595,7.23324286 30.5666433,7.23324286 C30.9162624,7.23324286 31.199884,6.949885 31.199884,6.6 L31.199884,3.43324286 Z" id="Path" fill="#212121"></path>
                </g>
            </g>
        </g>
    </g>
</svg>